<?xml version="1.0" standalone="no"?>
<!DOCTYPE svg PUBLIC "-//W3C//DTD SVG 20010904//EN"
 "http://www.w3.org/TR/2001/REC-SVG-20010904/DTD/svg10.dtd">
<svg version="1.0" xmlns="http://www.w3.org/2000/svg"
 width="405.000000pt" height="246.000000pt" viewBox="0 0 405.000000 246.000000"
 preserveAspectRatio="xMidYMid meet">

<g transform="translate(0.000000,246.000000) scale(0.100000,-0.100000)"
fill="#000000" stroke="none">
<path d="M460 1800 c-173 -18 -289 -60 -350 -126 -31 -34 -40 -52 -40 -79 0
-36 18 -51 80 -70 l25 -7 -25 26 c-21 23 -22 30 -12 46 7 11 12 31 12 44 0 33
49 70 120 90 108 30 314 46 449 35 68 -5 128 -12 134 -16 5 -3 42 -5 83 -5 40
1 76 -3 79 -8 4 -6 20 -10 36 -10 49 0 173 -31 159 -40 -17 -11 2 -19 120 -55
101 -30 140 -51 80 -42 -66 11 -205 50 -250 70 -45 21 -140 34 -103 14 10 -5
28 -19 40 -29 12 -11 26 -17 32 -14 5 4 14 -1 19 -10 6 -10 45 -25 103 -39
104 -25 131 -34 140 -48 4 -5 14 -5 25 0 16 8 53 10 97 4 16 -2 -79 -46 -129
-60 -88 -23 -241 -55 -270 -57 -41 -2 -171 -42 -180 -55 -13 -21 13 -32 48
-20 19 6 55 13 82 16 41 4 47 3 44 -12 -2 -10 -12 -19 -23 -22 -11 -2 -30 -14
-43 -27 -16 -16 -41 -25 -80 -30 -90 -10 -99 -26 -11 -19 58 4 79 2 88 -8 9
-12 1 -17 -47 -31 -178 -50 -234 -168 -125 -267 60 -55 230 -156 241 -144 4 4
1 10 -5 12 -19 7 -16 23 5 23 12 1 9 5 -10 16 l-28 15 35 31 c20 17 40 39 46
49 19 37 -23 20 -67 -25 -36 -39 -45 -43 -59 -32 -25 18 -18 30 44 73 30 21
56 44 59 51 8 24 -29 11 -94 -34 -68 -46 -94 -50 -94 -15 0 22 35 43 125 77
28 10 55 24 60 32 6 7 16 12 22 10 6 -2 23 10 37 27 23 26 28 28 46 17 19 -12
20 -11 14 15 -7 31 -30 53 -53 53 -21 -1 -130 -55 -149 -75 -4 -4 8 -4 26 0
21 4 32 3 32 -4 0 -14 -59 -51 -82 -51 -9 0 -40 -14 -69 -31 -31 -18 -56 -26
-61 -21 -13 13 3 93 23 113 9 9 55 32 102 49 83 32 85 34 85 65 0 42 10 75 30
98 8 9 11 17 6 18 -13 1 115 39 150 44 68 11 174 44 196 61 22 17 70 26 70 14
0 -6 10 -8 25 -4 14 3 25 2 25 -3 0 -17 -33 -39 -77 -52 -40 -11 -67 -31 -43
-31 18 0 134 51 149 66 13 11 12 14 -2 20 -19 7 -23 39 -6 50 6 3 16 1 22 -5
6 -6 19 -11 29 -11 31 0 98 -34 104 -53 6 -18 -25 -52 -36 -41 -2 3 1 9 8 13
13 8 6 41 -8 41 -9 0 -40 -34 -40 -45 0 -5 -11 -20 -24 -34 l-25 -26 37 1 c50
1 112 32 112 57 0 14 5 17 17 13 9 -4 25 1 37 13 12 11 50 30 86 43 48 17 64
28 62 40 -1 9 1 19 6 22 4 2 6 21 4 40 -4 32 -7 36 -34 36 -26 0 -29 -2 -18
-16 11 -12 10 -18 -4 -32 -16 -16 -18 -16 -27 1 -16 28 -27 20 -20 -15 6 -28
12 -33 39 -36 18 -2 32 -7 32 -11 0 -10 -35 -21 -68 -21 -19 0 -21 3 -12 19 7
14 7 22 -1 27 -7 4 -9 23 -7 48 4 29 0 46 -10 55 -13 13 -13 16 2 26 9 7 16
17 16 23 0 5 8 13 17 17 33 13 143 32 143 24 0 -4 20 -11 45 -15 53 -8 64 -19
34 -35 -29 -15 -5 -31 29 -18 16 6 29 6 37 -1 8 -6 17 -5 30 4 25 18 13 59
-22 75 -16 7 -36 17 -45 22 -10 5 -26 9 -36 9 -10 0 -27 7 -38 15 -25 19 -65
19 -123 0 -25 -9 -64 -20 -87 -25 -58 -14 -94 -48 -94 -88 0 -18 4 -32 10 -32
5 0 14 -9 20 -20 8 -15 6 -29 -10 -60 -11 -22 -23 -40 -26 -40 -3 0 -22 9 -42
20 -36 19 -107 51 -187 85 -131 55 -461 145 -604 164 -98 14 -405 21 -491 11z
m1017 -226 c-3 -3 -12 -4 -19 -1 -8 3 -5 6 6 6 11 1 17 -2 13 -5z m103 -44 c0
-5 -4 -10 -9 -10 -6 0 -13 5 -16 10 -3 6 1 10 9 10 9 0 16 -4 16 -10z m-400
-400 c0 -5 -9 -10 -21 -10 -11 0 -17 5 -14 10 3 6 13 10 21 10 8 0 14 -4 14
-10z m-194 -235 c14 -11 15 -14 4 -14 -8 0 -24 6 -34 14 -15 11 -16 15 -5 15
8 0 24 -7 35 -15z m69 -46 c11 -17 -1 -21 -15 -4 -8 9 -8 15 -2 15 6 0 14 -5
17 -11z"/>
<path d="M3151 1784 c-124 -12 -162 -19 -341 -58 -70 -15 -280 -84 -370 -121
-216 -88 -198 -84 -211 -46 -6 17 -18 31 -26 31 -15 0 -11 -12 15 -42 21 -25
8 -46 -38 -58 l-41 -11 28 -29 c32 -34 47 -37 65 -12 21 28 47 45 72 47 39 5
69 17 101 40 46 34 86 53 210 96 181 63 338 98 310 70 -39 -39 -150 -79 -374
-136 -101 -26 -113 -32 -92 -44 16 -10 6 -31 -15 -31 -9 0 -14 7 -12 17 2 10
-4 19 -14 21 -25 5 -22 -12 6 -42 24 -27 46 -34 46 -16 0 15 37 12 43 -3 4
-12 61 -28 147 -43 76 -13 230 -60 226 -69 -4 -12 -42 -9 -71 4 -11 6 -65 19
-120 31 -55 12 -108 24 -117 26 -10 3 -18 1 -18 -5 0 -5 17 -13 38 -16 20 -3
70 -14 109 -25 40 -11 81 -20 91 -20 21 0 62 -27 62 -42 0 -10 -26 -6 -64 8
-11 4 -16 1 -16 -10 0 -13 -5 -14 -26 -6 -38 15 -40 12 -10 -15 14 -13 26 -30
26 -36 0 -7 8 -21 17 -31 15 -17 15 -21 -6 -62 -12 -25 -24 -74 -28 -113 -4
-43 -13 -77 -25 -92 -10 -13 -18 -29 -18 -35 0 -23 -41 -56 -68 -56 -30 0 -75
-27 -67 -39 9 -15 47 -21 42 -7 -4 9 4 13 21 13 39 0 104 9 123 17 10 4 23 1
31 -8 10 -9 20 -11 29 -5 8 5 27 9 43 9 31 0 146 48 146 61 0 4 8 10 19 14 16
5 42 25 103 82 21 19 7 56 -17 47 -11 -5 -15 2 -15 27 0 25 3 30 10 19 5 -8
12 -11 16 -7 4 3 1 13 -6 22 -7 8 -8 15 -2 15 5 0 13 -7 16 -16 3 -9 13 -14
21 -10 8 3 17 1 20 -4 4 -6 11 -10 16 -10 22 0 -24 61 -64 85 -59 34 -157 66
-179 59 -24 -7 -18 -25 13 -41 29 -15 88 -65 89 -75 0 -5 -9 -8 -20 -8 -21 0
-27 -15 -10 -25 25 -15 6 -23 -25 -9 -63 26 -100 13 -54 -20 12 -8 30 -29 40
-46 l19 -31 -21 12 c-20 10 -21 9 -16 -10 4 -18 2 -21 -14 -16 -21 7 -25 -4
-9 -23 7 -9 7 -9 -2 -2 -7 5 -15 10 -19 10 -13 0 -18 -44 -7 -57 20 -25 -2
-27 -27 -3 -28 26 -47 21 -21 -6 9 -9 14 -19 11 -22 -5 -5 -19 10 -51 54 -21
30 -21 122 -1 164 9 18 17 39 17 46 0 7 7 20 16 29 9 8 14 24 11 34 -3 13 2
21 14 24 11 3 19 14 19 24 0 10 5 24 10 29 7 7 8 25 1 55 -5 24 -8 45 -6 48 8
8 67 2 117 -11 50 -12 51 -12 72 15 12 15 31 27 42 27 21 0 63 25 54 32 -33
26 -70 39 -120 45 -66 7 -84 -10 -30 -28 32 -12 41 -29 14 -29 -10 0 -14 -6
-10 -15 6 -17 -2 -19 -24 -5 -10 6 -11 10 -2 10 25 0 11 21 -18 27 -17 3 -33
10 -36 14 -7 12 -24 11 -24 0 0 -5 9 -13 20 -16 11 -3 20 -10 20 -14 0 -9 -98
4 -155 21 -11 4 -37 9 -58 13 -28 4 -37 10 -33 21 3 8 1 14 -4 14 -6 0 -10 -4
-10 -10 0 -5 -7 -10 -15 -10 -8 0 -15 5 -15 11 0 8 -4 8 -14 0 -10 -8 -16 -8
-25 3 -8 9 -24 12 -50 9 -25 -4 -52 1 -82 15 l-44 20 40 6 c91 15 153 29 203
47 29 10 63 19 76 19 26 0 155 88 156 106 0 22 74 41 159 43 47 1 114 9 150
18 53 12 99 14 234 9 181 -7 230 -13 221 -27 -6 -10 0 -13 64 -29 31 -8 42
-16 42 -30 0 -11 7 -20 15 -20 8 0 15 8 15 18 0 10 3 13 8 6 6 -9 29 -11 61
-5 3 1 -8 14 -24 31 -39 41 -82 59 -192 81 -113 23 -341 24 -552 3z m-354
-908 c-4 -9 -11 -16 -17 -16 -17 0 -24 31 -9 41 18 11 34 -5 26 -25z"/>
<path d="M679 1720 c-50 -4 -86 -12 -105 -25 -17 -11 -23 -20 -16 -23 16 -5
16 -54 0 -71 -11 -10 -7 -11 17 -5 43 10 45 12 45 49 l0 34 60 7 c57 6 103 26
84 35 -5 3 -43 2 -85 -1z"/>
<path d="M3508 1718 c7 -7 12 -26 12 -42 0 -17 4 -38 9 -45 7 -10 4 -23 -8
-40 -10 -15 -16 -31 -14 -37 2 -6 -12 -21 -30 -34 -24 -16 -33 -29 -29 -42 3
-14 -1 -18 -20 -18 -26 0 -68 -37 -68 -59 0 -9 -8 -11 -24 -7 -28 7 -79 -32
-74 -55 2 -9 -11 -13 -46 -14 -53 0 -72 -18 -34 -31 13 -4 28 -7 33 -5 38 11
94 9 104 -3 9 -11 4 -13 -30 -13 -30 0 -46 -6 -58 -20 -17 -22 -38 -20 -243
15 -48 9 -54 6 -40 -14 14 -21 231 -35 347 -22 70 8 213 83 194 102 -2 3 -16
7 -32 11 -22 6 -26 4 -21 -9 8 -22 -9 -20 -29 2 -21 23 -21 32 -2 32 9 0 19 9
23 21 8 20 10 20 45 -13 33 -32 39 -34 64 -23 27 12 60 42 52 49 -2 2 -14 7
-26 10 -17 6 -23 3 -23 -8 0 -23 -15 -20 -47 9 -27 23 -27 24 -6 25 15 0 21 5
17 14 -3 8 -1 16 3 19 12 8 93 -30 93 -43 0 -20 28 -10 70 25 23 19 51 35 62
35 11 0 38 16 59 35 22 19 45 35 53 35 16 0 29 27 20 41 -9 15 -27 10 -20 -6
8 -23 -15 -18 -80 15 -67 34 -80 36 -100 16 -12 -12 -10 -16 16 -28 17 -7 30
-18 30 -25 0 -7 9 -18 20 -25 11 -7 20 -16 20 -20 0 -16 -34 -7 -65 16 -17 13
-50 29 -74 36 -35 9 -42 15 -39 33 1 12 -1 27 -4 33 -7 10 27 48 45 51 5 1 12
5 15 9 4 4 -4 4 -18 1 -15 -3 -33 0 -44 9 -25 18 -76 20 -58 2z m277 -156 c-3
-3 -11 0 -18 7 -9 10 -8 11 6 5 10 -3 15 -9 12 -12z m-150 -24 c3 4 2 -6 -4
-21 -6 -15 -8 -34 -4 -44 5 -13 -2 -12 -37 8 -24 13 -45 29 -47 34 -5 16 39
32 63 24 12 -4 25 -5 29 -1z m45 -40 c0 -6 -7 -5 -15 2 -8 7 -15 17 -15 22 0
6 7 5 15 -2 8 -7 15 -17 15 -22z m-310 -163 c21 -11 30 -23 30 -40 0 -31 -8
-31 -51 -2 -62 42 -44 76 21 42z"/>
<path d="M365 1711 c-36 -9 -99 -41 -92 -47 2 -2 23 3 47 11 24 8 45 13 47 11
11 -11 -38 -51 -92 -76 -66 -30 -80 -43 -90 -81 -5 -21 -1 -29 19 -42 14 -10
36 -17 50 -17 13 0 43 -16 66 -35 23 -19 47 -35 54 -35 13 0 49 -54 41 -62 -3
-2 8 -3 23 0 18 2 35 -2 45 -13 22 -21 22 -36 0 -29 -30 10 29 -34 61 -46 26
-9 27 -8 15 7 -13 15 -12 15 9 4 12 -6 22 -16 22 -20 0 -9 82 -52 88 -46 6 5
-23 45 -32 45 -5 0 -17 7 -26 15 -16 14 -15 18 15 49 19 20 44 36 61 38 21 2
29 8 29 23 0 17 -6 20 -38 19 -32 -1 -44 -8 -69 -38 -17 -20 -38 -36 -47 -34
-9 1 -21 -1 -27 -4 -6 -4 -22 4 -34 17 -20 21 -21 25 -6 25 9 0 27 9 38 20 12
11 37 25 55 32 37 14 42 32 13 48 -22 12 -27 10 -85 -34 -72 -56 -80 -58 -104
-30 -22 25 -26 36 -13 32 4 -2 27 11 52 28 25 18 54 33 64 35 30 6 30 27 1 41
-24 11 -29 10 -44 -7 -9 -11 -27 -26 -41 -32 -14 -7 -32 -17 -40 -21 -54 -31
-58 -31 -76 -11 -11 13 -14 23 -8 27 6 4 26 19 45 33 19 15 55 34 82 44 46 17
56 28 38 40 -14 8 -140 -40 -165 -64 -12 -12 -32 -21 -43 -21 -12 0 -23 -6
-26 -12 -3 -10 -10 -8 -25 6 l-21 19 34 27 c19 15 49 33 67 40 45 18 89 50 83
59 -2 5 2 17 10 27 15 20 20 45 8 43 -5 -1 -21 -4 -38 -8z"/>
<path d="M1986 1693 c-6 -14 -5 -15 5 -6 7 7 10 15 7 18 -3 3 -9 -2 -12 -12z"/>
<path d="M3280 1701 c0 -14 26 -20 95 -22 78 -2 80 -2 65 16 -14 17 -160 22
-160 6z"/>
<path d="M980 1680 c0 -5 7 -13 17 -18 16 -10 -119 -22 -197 -19 -39 2 -54
-16 -18 -21 13 -2 30 -6 38 -9 18 -7 157 -5 218 4 23 3 42 11 42 17 0 7 -20
22 -44 34 -48 25 -56 26 -56 12z"/>
<path d="M1165 1680 c-3 -5 1 -10 9 -10 9 0 16 5 16 10 0 6 -4 10 -9 10 -6 0
-13 -4 -16 -10z"/>
<path d="M2087 1683 c-4 -3 -7 -11 -7 -17 0 -6 5 -5 12 2 6 6 9 14 7 17 -3 3
-9 2 -12 -2z"/>
<path d="M3085 1670 c3 -5 8 -10 11 -10 2 0 4 5 4 10 0 6 -5 10 -11 10 -5 0
-7 -4 -4 -10z"/>
<path d="M3716 1661 c13 -11 95 -33 101 -27 7 6 -3 10 -66 24 -24 6 -40 7 -35
3z"/>
<path d="M3220 1647 c-25 -6 -76 -10 -115 -8 -80 2 -135 -5 -135 -19 0 -6 22
-10 49 -10 26 0 69 -3 95 -6 39 -6 46 -10 41 -25 -4 -13 2 -22 24 -34 38 -19
40 -28 4 -14 -44 17 -174 22 -223 9 -25 -6 -57 -14 -72 -17 -16 -3 -28 -10
-28 -17 0 -6 -7 -3 -15 8 -11 15 -23 18 -60 14 -25 -3 -48 -8 -51 -11 -12 -12
9 -27 37 -27 17 0 43 -7 60 -15 16 -9 33 -14 37 -11 5 3 26 1 48 -4 30 -7 42
-6 53 5 19 19 5 33 -17 18 -13 -7 -21 -7 -29 3 -10 10 -9 14 6 19 40 12 171
11 237 -2 64 -13 69 -13 87 6 20 19 20 20 -27 41 -25 12 -46 26 -46 30 0 13
24 29 53 34 37 6 87 29 87 38 0 11 -45 8 -100 -5z"/>
<path d="M2110 1597 c-11 -23 -22 -32 -40 -32 -27 0 -40 -29 -22 -47 13 -13
105 -1 96 13 -3 6 0 23 6 40 10 23 10 32 0 44 -18 21 -23 19 -40 -18z"/>
<path d="M610 1590 c0 -5 5 -10 10 -10 6 0 10 5 10 10 0 6 -4 10 -10 10 -5 0
-10 -4 -10 -10z"/>
<path d="M676 1569 c-65 -34 -72 -46 -47 -73 11 -12 21 -30 21 -39 0 -24 16
-29 35 -11 14 14 14 19 2 38 -17 25 -12 46 11 46 10 0 25 14 34 30 16 28 16
30 0 30 -10 0 -35 -9 -56 -21z"/>
<path d="M1135 1570 c-4 -6 -3 -16 3 -22 6 -6 12 -6 17 2 4 6 3 16 -3 22 -6 6
-12 6 -17 -2z"/>
<path d="M3294 1569 c-8 -14 5 -26 39 -34 33 -9 36 8 5 29 -27 19 -35 20 -44
5z"/>
<path d="M1218 1548 c-5 -14 -67 -15 -218 -3 -66 6 -101 3 -162 -11 -43 -10
-77 -23 -75 -29 5 -13 21 -12 132 3 50 7 115 11 145 9 30 -2 66 -5 79 -6 20
-1 21 -3 11 -16 -20 -24 16 -31 56 -11 19 9 54 16 78 16 32 0 46 5 50 17 7 17
-9 32 -34 33 -8 0 -25 3 -36 6 -14 4 -23 1 -26 -8z"/>
<path d="M2647 1523 c-12 -11 -8 -23 8 -23 8 0 15 7 15 15 0 16 -12 20 -23 8z"/>
<path d="M975 1481 c-6 -5 -34 -16 -63 -25 -29 -8 -66 -25 -82 -36 -28 -20
-29 -23 -15 -43 21 -30 20 -32 -24 -46 -24 -7 -49 -24 -61 -41 -12 -17 -30
-30 -42 -30 -28 0 -17 -24 13 -28 13 -1 34 3 46 10 11 7 49 28 82 47 40 22 60
39 56 48 -3 7 -8 20 -11 28 -3 8 -1 15 5 15 6 0 19 8 29 18 10 9 37 29 60 45
42 27 54 47 29 47 -7 0 -17 -4 -22 -9z"/>
<path d="M1050 1470 c0 -5 5 -10 10 -10 6 0 10 5 10 10 0 6 -4 10 -10 10 -5 0
-10 -4 -10 -10z"/>
<path d="M3210 1462 c0 -11 41 -34 48 -27 4 4 -2 13 -12 21 -22 15 -36 18 -36
6z"/>
<path d="M2820 1450 c0 -5 5 -10 11 -10 5 0 7 5 4 10 -3 6 -8 10 -11 10 -2 0
-4 -4 -4 -10z"/>
<path d="M2320 1436 c0 -6 70 -46 82 -46 5 0 25 -7 44 -16 19 -9 37 -14 41
-10 3 3 -11 13 -33 22 -21 8 -57 24 -80 35 -40 19 -54 23 -54 15z"/>
<path d="M1953 1406 c-13 -13 -23 -33 -23 -44 0 -11 -8 -22 -20 -25 -14 -4
-20 -14 -20 -35 0 -40 10 -45 54 -27 52 22 55 32 47 148 -1 13 -16 7 -38 -17z"/>
<path d="M2120 1410 c0 -11 -4 -20 -9 -20 -5 0 -19 -16 -30 -36 -14 -24 -26
-34 -37 -30 -17 6 -31 -21 -18 -34 5 -5 20 -10 34 -12 14 -2 30 -7 37 -11 8
-5 21 8 37 36 26 43 32 80 20 111 -9 23 -34 20 -34 -4z"/>
<path d="M2267 1403 c10 -29 24 -43 44 -43 9 0 19 -8 21 -18 3 -15 6 -16 27
-6 23 12 22 12 -23 33 -25 11 -49 27 -52 35 -8 22 -25 20 -17 -1z"/>
<path d="M2220 1380 c0 -5 5 -10 11 -10 5 0 7 5 4 10 -3 6 -8 10 -11 10 -2 0
-4 -4 -4 -10z"/>
<path d="M1752 1343 c-29 -43 -34 -63 -15 -63 12 0 13 -3 4 -14 -7 -9 -8 -22
-3 -37 5 -13 7 -52 5 -86 -1 -38 1 -63 7 -63 6 0 10 -35 9 -88 -2 -71 3 -103
25 -172 15 -46 35 -97 43 -114 8 -16 24 -53 34 -83 10 -30 32 -70 49 -91 16
-20 30 -45 30 -56 0 -22 27 -45 54 -46 16 0 17 5 11 37 -6 36 -33 82 -47 83
-5 0 -8 8 -8 18 0 10 -20 59 -45 108 -25 49 -43 95 -40 101 2 7 -5 28 -15 46
-23 39 -22 30 -22 250 1 135 4 174 16 193 21 30 20 48 0 40 -13 -5 -15 -2 -11
14 4 15 -2 24 -23 35 -37 19 -35 20 -58 -12z"/>
<path d="M2567 1353 c-16 -4 -15 -7 8 -19 37 -19 57 -18 53 4 -3 17 -29 24
-61 15z"/>
<path d="M1292 1339 c-60 -11 -162 -59 -162 -75 0 -19 13 -18 52 5 18 11 60
30 93 42 33 12 64 25 70 30 10 10 7 10 -53 -2z"/>
<path d="M436 1315 c4 -8 11 -15 16 -15 6 0 5 6 -2 15 -7 8 -14 15 -16 15 -2
0 -1 -7 2 -15z"/>
<path d="M2980 1310 c0 -4 7 -11 16 -14 19 -7 59 -8 52 -1 -10 11 -68 23 -68
15z"/>
<path d="M2177 1283 c-4 -3 -7 -11 -7 -17 0 -6 5 -5 12 2 6 6 9 14 7 17 -3 3
-9 2 -12 -2z"/>
<path d="M2216 1282 c-3 -6 -1 -14 5 -17 15 -10 25 3 12 16 -7 7 -13 7 -17 1z"/>
<path d="M2260 1260 c0 -5 5 -10 11 -10 5 0 7 5 4 10 -3 6 -8 10 -11 10 -2 0
-4 -4 -4 -10z"/>
<path d="M1140 1230 c0 -5 5 -10 10 -10 6 0 10 5 10 10 0 6 -4 10 -10 10 -5 0
-10 -4 -10 -10z"/>
<path d="M2050 1220 c0 -5 9 -14 20 -20 22 -12 27 -1 8 18 -14 14 -28 16 -28
2z"/>
<path d="M3090 1205 c0 -8 5 -15 10 -15 6 0 10 7 10 15 0 8 -4 15 -10 15 -5 0
-10 -7 -10 -15z"/>
<path d="M1952 1183 c-12 -8 -33 -15 -47 -15 -14 0 -25 -4 -25 -9 0 -16 78
-10 94 7 32 31 17 44 -22 17z"/>
<path d="M2010 1179 c0 -17 46 -38 75 -35 29 3 61 23 52 32 -4 5 -17 3 -28 -4
-20 -13 -64 -7 -86 11 -9 6 -13 5 -13 -4z"/>
<path d="M2230 1141 c0 -11 5 -23 10 -26 6 -3 10 3 10 14 0 11 -4 23 -10 26
-5 3 -10 -3 -10 -14z"/>
<path d="M936 1095 c-16 -12 -17 -15 -4 -15 24 0 48 11 48 21 0 13 -23 10 -44
-6z"/>
<path d="M1885 1100 c-8 -13 20 -24 42 -16 15 6 15 8 3 16 -20 13 -37 12 -45
0z"/>
<path d="M2105 1089 c-4 -6 -5 -12 -2 -15 7 -7 37 7 37 17 0 13 -27 11 -35 -2z"/>
<path d="M1236 1061 c-4 -5 -2 -12 3 -15 5 -4 12 -2 15 3 4 5 2 12 -3 15 -5 4
-12 2 -15 -3z"/>
<path d="M1955 1035 c-16 -7 -38 -16 -47 -19 -36 -11 -19 -28 19 -21 49 9 73
22 73 40 0 18 -6 18 -45 0z"/>
<path d="M2053 1005 c10 -7 35 -16 55 -20 34 -6 38 -4 45 21 1 4 -25 8 -58 10
-52 2 -58 1 -42 -11z"/>
<path d="M2281 973 c0 -5 14 -35 30 -68 31 -63 32 -35 1 36 -15 34 -33 53 -31
32z"/>
<path d="M1962 953 c5 -25 28 -28 28 -4 0 12 -6 21 -16 21 -9 0 -14 -7 -12
-17z"/>
<path d="M2100 956 c0 -18 17 -29 30 -21 8 5 7 11 -1 21 -15 18 -29 18 -29 0z"/>
<path d="M1272 947 c-6 -6 -13 -24 -17 -39 -4 -15 -15 -34 -26 -44 -26 -23
-24 -34 6 -34 20 0 25 6 31 35 3 19 12 39 20 46 15 13 19 49 5 49 -5 0 -13 -6
-19 -13z"/>
<path d="M1161 891 c-30 -28 -40 -51 -22 -51 9 0 71 66 71 75 0 13 -21 2 -49
-24z"/>
<path d="M1965 911 c-6 -11 9 -23 19 -14 9 9 7 23 -3 23 -6 0 -12 -4 -16 -9z"/>
<path d="M2240 900 c0 -14 -3 -43 -6 -65 l-6 -40 16 29 c18 32 20 64 6 86 -8
12 -10 10 -10 -10z"/>
<path d="M1315 873 c-21 -6 -36 -23 -30 -33 7 -11 153 -11 160 0 3 5 -7 12
-22 15 -51 11 -58 13 -73 18 -8 2 -24 2 -35 0z"/>
<path d="M1960 845 c0 -8 -9 -15 -20 -15 -11 0 -20 -5 -20 -11 0 -6 9 -9 19
-6 12 3 22 -1 26 -12 6 -14 8 -13 15 4 13 32 11 55 -5 55 -8 0 -15 -7 -15 -15z"/>
<path d="M2350 819 c7 -11 14 -19 16 -16 7 7 -7 37 -17 37 -6 0 -5 -9 1 -21z"/>
<path d="M1145 820 c-3 -5 1 -10 10 -10 9 0 13 5 10 10 -3 6 -8 10 -10 10 -2
0 -7 -4 -10 -10z"/>
<path d="M1128 783 c7 -3 16 -2 19 1 4 3 -2 6 -13 5 -11 0 -14 -3 -6 -6z"/>
<path d="M1960 769 c0 -5 5 -7 10 -4 6 3 10 8 10 11 0 2 -4 4 -10 4 -5 0 -10
-5 -10 -11z"/>
<path d="M1940 713 c0 -11 7 -14 23 -9 12 3 37 6 55 6 17 0 32 4 32 9 0 5 -25
9 -55 9 -42 -1 -55 -4 -55 -15z"/>
</g>
</svg>
