<?xml version="1.0" standalone="no"?>
<!DOCTYPE svg PUBLIC "-//W3C//DTD SVG 20010904//EN"
 "http://www.w3.org/TR/2001/REC-SVG-20010904/DTD/svg10.dtd">
<svg version="1.0" xmlns="http://www.w3.org/2000/svg"
 width="600.000000pt" height="600.000000pt" viewBox="0 0 600.000000 600.000000"
 preserveAspectRatio="xMidYMid meet">

<g transform="translate(0.000000,600.000000) scale(0.100000,-0.100000)"
fill="#000000" stroke="none">
<path d="M2810 5860 c-604 -47 -1146 -257 -1603 -623 -127 -101 -337 -311
-439 -437 -535 -663 -745 -1537 -573 -2385 87 -433 292 -866 573 -1215 98
-122 310 -334 432 -432 665 -536 1537 -745 2385 -573 430 87 860 289 1208 568
131 105 339 313 444 444 532 665 739 1532 568 2378 -87 431 -288 858 -570
1210 -102 128 -312 338 -440 440 -352 282 -779 483 -1209 570 -245 50 -556 71
-776 55z m-138 -69 c-165 -58 -346 -194 -449 -338 -24 -35 -48 -63 -51 -63 -4
0 -18 19 -32 42 -14 22 -60 77 -102 122 -42 44 -76 81 -75 82 10 10 262 89
359 113 125 32 335 68 398 70 28 1 18 -5 -48 -28z m278 -35 c-55 -120 -72
-199 -77 -357 -6 -151 9 -266 43 -348 13 -32 6 -27 -68 46 -136 132 -277 212
-450 253 -46 11 -104 20 -130 20 -30 0 -48 4 -48 12 0 18 74 111 138 174 154
151 348 235 609 263 7 0 0 -25 -17 -63z m237 38 c220 -42 423 -173 566 -365
38 -50 35 -59 -20 -59 -27 0 -85 -9 -131 -20 -172 -41 -314 -121 -448 -252
l-82 -79 18 53 c33 101 43 189 37 334 -5 150 -24 233 -76 349 l-29 64 46 -5
c26 -3 80 -12 119 -20z m241 5 c159 -24 352 -72 502 -124 58 -20 106 -38 107
-39 1 -1 -33 -38 -75 -82 -42 -45 -88 -100 -102 -122 -14 -23 -28 -42 -32 -42
-3 0 -27 28 -51 63 -103 144 -284 280 -449 338 -99 34 -81 36 100 8z m-390
-106 c39 -102 62 -224 62 -333 0 -48 -7 -125 -16 -171 -17 -89 -70 -239 -84
-239 -14 0 -67 150 -84 239 -31 164 -15 347 46 504 16 42 33 77 38 77 5 0 22
-35 38 -77z m-1056 -130 c60 -57 148 -166 148 -184 0 -5 -22 -9 -49 -9 -75 0
-237 -45 -336 -95 -114 -56 -237 -154 -314 -251 -34 -41 -61 -79 -61 -85 0 -5
-4 -9 -9 -9 -16 0 -71 140 -96 246 l-12 54 66 49 c130 96 258 174 425 257 93
46 171 84 173 84 3 0 32 -26 65 -57z m2298 -38 c135 -68 259 -143 383 -233
l79 -57 -6 -46 c-11 -79 -79 -259 -98 -259 -4 0 -8 4 -8 9 0 6 -27 44 -61 85
-77 97 -200 195 -314 251 -99 50 -261 95 -336 95 -27 0 -49 4 -49 9 0 18 88
127 148 183 l60 58 39 -16 c21 -9 94 -45 163 -79z m-2165 -265 c-57 -140 -70
-215 -69 -385 1 -144 13 -219 50 -310 4 -11 -26 13 -67 54 -157 157 -366 258
-571 278 -38 3 -68 9 -68 12 0 3 23 36 50 73 146 193 383 326 635 356 39 4 71
8 72 7 1 0 -13 -39 -32 -85z m1954 49 c194 -52 375 -173 491 -327 27 -37 50
-70 50 -73 0 -3 -30 -9 -66 -12 -209 -20 -417 -121 -574 -278 -41 -41 -70 -65
-66 -54 51 124 68 332 42 483 -13 77 -49 190 -90 283 -6 14 2 14 66 7 40 -5
106 -18 147 -29z m-1649 1 c178 -49 359 -168 474 -312 36 -45 66 -85 66 -89 0
-3 -33 -9 -72 -12 -208 -18 -449 -140 -594 -300 -26 -28 -44 -43 -40 -32 54
145 67 390 28 547 -12 48 -35 117 -52 154 -16 37 -30 69 -30 72 0 10 148 -8
220 -28z m1380 26 c0 -2 -14 -33 -30 -70 -92 -201 -101 -482 -24 -701 3 -11
-14 3 -40 32 -142 159 -386 282 -593 300 -40 3 -73 9 -73 12 0 4 30 44 66 89
130 163 322 281 530 326 63 13 164 21 164 12z m-1588 -116 c43 -110 60 -205
60 -330 0 -129 -17 -219 -65 -345 l-31 -80 -27 61 c-64 140 -91 328 -69 475
19 131 81 313 99 293 5 -5 19 -38 33 -74z m1667 -45 c38 -118 55 -239 48 -336
-8 -102 -41 -238 -76 -314 l-27 -60 -32 83 c-48 123 -64 211 -64 347 0 129 26
256 72 359 21 47 23 48 37 31 7 -11 26 -60 42 -110z m-2637 -43 c9 -37 20 -77
24 -90 4 -15 -13 -3 -55 40 l-61 63 32 28 c18 15 35 27 38 27 3 0 13 -30 22
-68z m3576 41 l32 -28 -61 -63 c-42 -43 -59 -55 -55 -40 4 13 14 53 24 91 9
37 19 67 22 67 3 0 20 -12 38 -27z m-3617 -132 c41 -43 82 -92 92 -110 l18
-31 -41 0 c-147 0 -390 -94 -512 -199 -21 -18 -41 -32 -43 -30 -13 13 381 449
405 449 5 0 41 -35 81 -79z m3810 -49 c116 -119 281 -313 273 -321 -2 -2 -21
12 -42 30 -122 105 -365 199 -512 199 l-41 0 18 31 c20 35 161 189 173 189 4
0 63 -57 131 -128z m-3691 -126 c0 -2 -11 -29 -25 -60 -64 -145 -93 -331 -75
-487 10 -84 29 -180 47 -225 3 -9 -26 16 -65 55 -86 86 -211 169 -318 212 -81
33 -234 69 -292 69 l-33 0 18 31 c29 51 162 187 227 234 109 77 231 130 367
160 60 13 149 20 149 11z m250 -23 c157 -39 314 -128 431 -243 61 -60 136
-157 127 -165 -1 -2 -44 3 -93 10 -199 30 -372 120 -520 269 -49 50 -99 107
-109 125 l-19 34 59 -7 c32 -3 88 -14 124 -23z m1361 -17 c-118 -171 -319
-309 -525 -361 -102 -25 -186 -37 -186 -25 0 16 90 127 143 177 72 69 188 143
284 183 79 33 221 68 281 69 l33 1 -30 -44z m254 25 c218 -45 422 -172 551
-344 24 -33 44 -62 44 -67 0 -12 -84 0 -188 26 -205 51 -405 189 -523 360
l-30 44 28 0 c15 0 69 -9 118 -19z m1408 -12 c-10 -18 -51 -67 -92 -111 -126
-135 -310 -239 -481 -273 -89 -18 -150 -24 -150 -17 0 4 23 38 52 76 96 128
260 246 418 302 81 28 185 52 238 53 l33 1 -18 -31z m311 -4 c199 -58 373
-178 493 -340 l45 -59 -89 -13 c-221 -32 -396 -118 -551 -271 -41 -40 -72 -66
-69 -57 18 44 37 140 47 224 18 156 -11 342 -75 487 -14 31 -25 59 -25 62 0
11 143 -10 224 -33z m-3529 -60 c64 -145 89 -344 61 -501 -15 -90 -70 -259
-86 -269 -12 -8 -66 137 -84 227 -25 119 -21 285 8 400 22 88 63 198 73 198 2
0 15 -25 28 -55z m1665 -32 c84 -231 80 -462 -12 -688 -13 -30 -25 -55 -28
-55 -8 0 -48 104 -71 183 -29 100 -36 286 -16 392 17 87 74 255 87 255 4 0 22
-39 40 -87z m1681 -86 c30 -104 37 -306 14 -418 -19 -95 -72 -242 -85 -234
-16 10 -71 179 -86 269 -28 158 -3 359 63 504 l25 57 24 -53 c14 -30 34 -86
45 -125z m-3122 -66 c86 -64 204 -123 304 -152 l77 -23 -77 -22 c-156 -45
-310 -140 -421 -258 -29 -31 -55 -56 -57 -56 -2 0 2 18 10 41 61 172 56 459
-11 624 -4 11 18 -8 50 -42 31 -34 88 -85 125 -112z m1315 127 c-59 -163 -58
-463 1 -605 8 -18 13 -33 11 -33 -1 0 -41 37 -87 83 -107 103 -217 170 -362
218 l-111 37 44 11 c170 43 324 133 445 257 39 40 71 73 72 73 1 1 -5 -18 -13
-41z m361 -145 c99 -67 208 -117 315 -144 l44 -11 -111 -37 c-145 -48 -255
-115 -362 -218 -46 -46 -86 -83 -87 -83 -2 0 3 15 11 33 59 141 60 442 1 604
l-15 43 72 -73 c40 -40 99 -91 132 -114z m1300 170 c-49 -119 -68 -351 -41
-495 9 -47 23 -105 31 -127 8 -23 12 -41 10 -41 -2 0 -32 30 -67 66 -110 115
-285 217 -436 255 l-53 13 84 26 c163 51 323 151 425 266 51 58 58 63 47 37z
m-3902 -358 c190 -33 365 -122 498 -254 85 -85 148 -171 126 -171 -45 0 -197
34 -270 60 -163 59 -332 186 -426 320 -48 68 -50 66 72 45z m1457 7 c0 -4 -28
-43 -62 -86 -109 -135 -267 -242 -438 -299 -75 -25 -227 -53 -237 -44 -7 8 68
106 123 162 131 131 313 227 492 259 92 17 122 19 122 8z m275 -23 c101 -25
241 -92 326 -157 70 -54 182 -170 213 -222 l18 -32 -53 7 c-258 33 -480 154
-630 342 -32 41 -59 79 -59 85 0 13 78 3 185 -23z m1375 23 c0 -4 -24 -39 -53
-77 -143 -187 -380 -319 -631 -350 l-58 -7 18 32 c30 51 142 168 214 222 84
64 224 132 325 157 113 28 185 37 185 23z m275 -23 c160 -41 314 -130 432
-250 67 -69 128 -148 120 -156 -10 -9 -163 19 -237 44 -171 57 -329 164 -437
299 -35 43 -63 82 -63 87 0 12 86 0 185 -24z m1343 -30 c-92 -132 -263 -260
-425 -319 -73 -26 -225 -60 -270 -60 -22 0 41 86 126 171 130 129 307 220 490
253 131 24 129 26 79 -45z m-4770 -88 c105 -124 284 -236 451 -284 l83 -24
-68 -17 c-90 -23 -219 -84 -302 -143 -79 -56 -190 -167 -229 -229 -15 -24 -30
-44 -33 -44 -9 0 -61 132 -82 209 -18 62 -22 104 -22 226 0 166 15 242 73 370
l31 68 26 -39 c15 -21 47 -63 72 -93z m4892 18 c83 -216 77 -474 -17 -693 -15
-36 -30 -66 -33 -66 -3 0 -18 20 -33 44 -39 62 -150 173 -229 229 -83 59 -212
120 -302 143 l-68 17 83 24 c115 33 234 94 328 169 77 61 181 175 204 222 10
22 12 23 24 6 7 -10 26 -53 43 -95z m-3291 -44 c68 -209 59 -428 -26 -634 -32
-77 -36 -74 -82 63 -73 221 -62 452 30 662 21 47 21 47 35 23 7 -13 27 -65 43
-114z m1634 55 c80 -204 85 -416 15 -627 -44 -135 -49 -138 -81 -64 -80 186
-94 418 -35 610 28 93 60 164 68 154 4 -4 19 -37 33 -73z m-1778 -43 c-60
-143 -55 -456 10 -618 3 -9 -34 22 -83 70 -109 106 -219 173 -362 221 l-108
36 69 18 c141 36 310 138 428 260 30 30 56 54 58 52 2 -1 -4 -19 -12 -39z
m348 -123 c83 -62 199 -119 298 -148 l82 -23 -54 -13 c-150 -36 -293 -117
-421 -238 -50 -48 -88 -78 -84 -67 70 181 69 448 -1 642 -3 10 22 -10 56 -45
34 -34 90 -83 124 -108z m1297 98 c-54 -172 -47 -424 16 -587 4 -11 -34 19
-84 67 -128 121 -271 202 -421 238 l-54 13 82 23 c154 45 305 136 419 253 31
33 58 58 59 57 1 -1 -7 -30 -17 -64z m393 -125 c76 -51 191 -103 271 -124 l64
-17 -108 -36 c-144 -48 -253 -115 -362 -221 -49 -48 -86 -79 -83 -70 36 91 48
172 48 326 0 156 -11 230 -48 320 -5 11 29 -16 76 -60 46 -44 110 -97 142
-118z m-3731 -104 c-5 -165 16 -285 72 -414 l35 -82 -67 7 c-37 3 -98 14 -137
24 l-70 18 3 37 c4 55 64 265 118 415 26 72 48 132 49 132 1 0 0 -62 -3 -137z
m5282 -51 c54 -156 111 -381 100 -392 -14 -12 -136 -40 -208 -47 l-65 -6 35
82 c56 129 77 249 72 414 -5 157 -7 159 66 -51z m-4405 -62 c-139 -199 -397
-349 -645 -375 l-67 -8 23 34 c143 206 364 347 617 393 123 22 120 24 72 -44z
m279 34 c155 -34 312 -116 424 -222 77 -73 164 -180 154 -189 -11 -12 -168 18
-255 49 -167 58 -309 158 -417 293 -35 43 -64 83 -64 87 0 9 72 1 158 -18z
m1395 -5 c-29 -51 -162 -187 -227 -234 -85 -60 -190 -111 -290 -139 -87 -26
-206 -44 -206 -32 0 17 68 105 125 162 151 151 378 254 598 273 17 1 17 0 0
-30z m276 0 c137 -31 277 -104 398 -207 49 -41 163 -179 163 -196 0 -14 -115
3 -206 30 -100 28 -205 79 -290 139 -66 47 -198 183 -228 234 l-18 33 48 -7
c27 -4 87 -15 133 -26z m1391 23 c0 -4 -28 -43 -62 -86 -108 -136 -260 -240
-437 -301 -76 -26 -227 -53 -237 -42 -10 10 80 119 159 193 143 134 347 221
565 243 6 0 12 -2 12 -7z m260 -23 c212 -49 423 -194 550 -378 l23 -34 -67 8
c-248 26 -506 176 -645 375 l-43 62 48 -7 c27 -4 87 -16 134 -26z m-3481 -105
c82 -225 78 -445 -10 -673 -13 -33 -27 -61 -30 -61 -15 0 -64 135 -84 233 -20
90 -19 268 1 365 18 87 73 234 84 227 5 -3 22 -44 39 -91z m3333 -79 c25 -89
36 -307 19 -397 -19 -101 -74 -258 -90 -258 -13 0 -72 175 -86 255 -27 152
-13 317 41 467 44 121 43 121 71 58 13 -30 33 -86 45 -125z m-1694 117 c52
-120 66 -199 67 -357 0 -113 -4 -166 -18 -215 -22 -83 -68 -200 -78 -200 -10
0 -53 111 -75 195 -29 107 -26 342 4 449 26 91 61 176 72 176 4 0 17 -22 28
-48z m-1777 -95 c-52 -170 -46 -421 15 -582 4 -11 -33 18 -82 65 -109 102
-231 177 -351 215 -48 15 -95 29 -103 32 -8 3 16 14 53 24 152 43 296 127 409
241 40 40 74 72 76 72 2 -1 -6 -31 -17 -67z m379 -114 c88 -59 243 -127 335
-146 23 -5 25 -4 -85 -37 -146 -44 -272 -121 -389 -238 -41 -41 -70 -66 -66
-55 67 160 71 450 10 624 l-16 43 83 -80 c46 -44 103 -94 128 -111z m1285 155
c-59 -143 -60 -442 -1 -607 l16 -44 -77 77 c-118 118 -250 198 -398 241 -33
10 -67 20 -75 22 -8 3 17 14 55 25 155 43 327 147 430 261 28 30 53 55 57 56
4 1 1 -14 -7 -31z m217 -24 c111 -118 279 -220 433 -262 39 -11 63 -22 55 -25
-8 -2 -42 -12 -75 -22 -148 -43 -280 -123 -398 -241 l-77 -77 16 44 c59 165
58 464 -1 607 -8 17 -12 32 -10 32 2 0 28 -25 57 -56z m1433 15 c-61 -172 -56
-463 10 -622 4 -11 -25 14 -66 55 -117 117 -243 194 -389 238 -110 33 -108 32
-85 37 52 11 157 49 220 81 94 46 177 107 255 186 35 36 65 66 67 66 1 0 -4
-18 -12 -41z m383 -154 c89 -57 179 -99 269 -124 37 -10 61 -21 53 -24 -8 -3
-55 -17 -103 -32 -123 -39 -242 -112 -355 -220 -53 -49 -90 -80 -84 -68 20 38
42 135 52 233 12 111 -1 259 -30 354 -11 33 -20 64 -20 67 0 4 33 -26 73 -66
39 -40 105 -94 145 -120z m-4663 -129 l50 -14 -40 -10 c-97 -26 -99 -26 -92
-8 4 10 7 24 7 32 0 17 10 17 75 0z m5505 0 c0 -8 3 -22 7 -32 7 -18 4 -18
-92 8 l-40 11 45 12 c62 17 80 17 80 1z m-5290 -29 c0 -2 -11 -27 -25 -55 -14
-29 -37 -92 -52 -140 -25 -80 -27 -100 -27 -262 0 -162 2 -182 27 -262 15 -48
38 -111 52 -140 14 -28 25 -53 25 -54 0 -15 -268 40 -293 59 -48 37 -49 756
-1 794 20 14 141 44 219 53 33 4 63 8 68 9 4 0 7 0 7 -2z m1604 -49 c-42 -63
-160 -178 -229 -225 -129 -87 -283 -145 -422 -159 -75 -8 -75 -12 -7 76 141
183 358 309 593 344 47 7 88 11 90 10 2 -2 -9 -23 -25 -46z m336 6 c197 -60
375 -187 488 -347 l33 -47 -29 0 c-85 0 -237 43 -347 98 -92 46 -147 84 -219
151 -55 52 -146 164 -146 180 0 13 132 -8 220 -35z m1315 -6 c-42 -63 -141
-164 -210 -213 -137 -97 -349 -175 -477 -175 l-29 0 33 47 c108 154 283 281
473 343 64 21 225 51 234 44 2 -2 -9 -23 -24 -46z m305 16 c189 -48 388 -181
507 -339 53 -71 54 -69 -20 -61 -184 19 -389 114 -531 246 -47 43 -146 166
-146 180 0 9 111 -6 190 -26z m1626 5 c50 -11 98 -25 107 -32 49 -38 49 -756
0 -794 -25 -19 -293 -74 -293 -59 0 1 11 26 25 54 14 29 37 92 52 140 25 80
27 101 27 262 0 161 -2 182 -27 262 -15 48 -38 111 -52 140 -14 28 -25 53 -25
54 0 6 108 -10 186 -27z m-4945 -3 c153 -39 273 -101 391 -202 56 -48 168
-180 168 -198 0 -12 -90 -2 -175 19 -205 52 -388 173 -521 346 l-45 59 44 0
c24 0 87 -11 138 -24z m4689 17 c-1 -14 -60 -87 -123 -152 -110 -114 -272
-206 -432 -246 -86 -21 -175 -31 -175 -18 0 5 28 44 63 87 119 148 296 261
487 310 93 25 180 33 180 19z m-4855 -69 c46 -65 160 -176 229 -223 68 -47
221 -117 289 -132 55 -13 77 -29 39 -29 -62 0 -262 -92 -358 -164 -67 -50
-174 -160 -214 -219 -14 -20 -28 -37 -32 -37 -9 0 -61 137 -84 220 -25 91 -25
329 0 420 23 83 75 220 84 220 4 0 25 -26 47 -56z m4933 -21 c57 -148 66 -196
66 -353 0 -109 -4 -161 -18 -210 -23 -83 -75 -220 -84 -220 -4 0 -18 17 -32
37 -40 59 -147 169 -214 219 -96 72 -296 164 -358 164 -10 0 -18 5 -18 10 0 6
8 10 18 10 62 0 262 92 358 164 67 50 174 160 214 219 14 20 28 37 32 37 3 0
20 -35 36 -77z m-3298 -13 c84 -214 84 -466 0 -680 -12 -30 -26 -59 -30 -64
-13 -13 -57 89 -83 193 -29 120 -29 302 0 422 26 104 70 206 83 193 4 -5 18
-34 30 -64z m1646 13 c92 -208 92 -499 -1 -708 -15 -35 -29 -55 -35 -49 -15
16 -51 115 -72 204 -30 124 -28 293 5 420 25 95 61 190 72 190 3 0 17 -25 31
-57z m-1764 -40 c-50 -98 -64 -401 -25 -543 11 -41 24 -84 29 -94 4 -11 -26
14 -67 55 -124 123 -293 222 -431 251 -32 7 -58 14 -58 18 0 3 32 13 71 22
144 35 346 157 441 268 42 49 58 58 40 23z m363 -160 c103 -69 272 -143 327
-143 39 0 14 -16 -51 -33 -143 -37 -290 -124 -410 -244 -40 -40 -70 -65 -66
-55 65 167 65 477 0 644 -4 10 26 -15 66 -55 41 -41 101 -92 134 -114z m1267
87 c-43 -164 -33 -418 23 -562 4 -10 -26 15 -66 55 -120 120 -267 207 -410
244 -65 17 -90 33 -51 33 31 0 158 47 229 84 90 48 190 124 250 190 26 29 49
53 49 52 1 0 -10 -44 -24 -96z m397 -94 c88 -59 205 -111 284 -128 31 -7 57
-15 57 -18 0 -3 -26 -11 -57 -18 -138 -29 -310 -128 -432 -250 -41 -41 -70
-66 -66 -55 36 87 49 174 49 323 0 149 -13 236 -49 323 -4 11 25 -14 66 -55
41 -40 107 -95 148 -122z m-2819 -174 c0 -20 -129 -167 -191 -216 -145 -116
-295 -179 -480 -205 -69 -9 -72 -4 -28 54 129 172 328 304 531 350 40 9 78 18
83 20 21 7 85 5 85 -3z m290 -23 c194 -54 375 -174 491 -327 27 -36 49 -68 49
-72 0 -9 -116 6 -192 25 -73 19 -227 89 -291 134 -67 46 -153 127 -201 190
-68 89 -68 85 5 77 36 -3 98 -15 139 -27z m1338 -16 c-113 -160 -291 -287
-488 -347 -88 -27 -220 -48 -220 -35 0 16 91 128 146 180 72 67 127 105 219
151 108 54 252 95 338 97 l38 1 -33 -47z m327 12 c195 -57 365 -173 481 -329
24 -32 44 -61 44 -65 0 -13 -132 8 -220 35 -197 60 -378 189 -489 348 l-34 49
66 -7 c37 -3 105 -18 152 -31z m1349 23 c-46 -78 -163 -199 -251 -259 -64 -45
-218 -115 -291 -134 -76 -19 -192 -34 -192 -25 0 4 22 36 49 72 103 136 255
246 426 307 118 42 275 66 259 39z m271 -13 c157 -40 300 -119 418 -234 68
-66 137 -150 137 -168 0 -6 -23 -7 -59 -2 -185 26 -335 89 -480 205 -64 51
-191 196 -191 218 0 12 90 2 175 -19z m-3496 -76 c65 -168 85 -339 57 -495
-15 -89 -70 -259 -86 -269 -11 -7 -66 140 -84 227 -20 97 -21 275 -1 365 20
98 69 233 84 233 3 0 17 -28 30 -61z m1654 -6 c52 -134 62 -188 62 -348 0
-127 -4 -162 -23 -229 -26 -91 -61 -176 -72 -176 -11 0 -46 85 -72 176 -30
104 -33 342 -5 444 22 81 68 200 77 200 4 0 19 -30 33 -67z m1647 15 c91 -212
94 -482 8 -700 -17 -43 -34 -75 -38 -73 -16 10 -71 180 -86 269 -19 105 -14
255 11 351 19 75 67 205 76 205 4 0 17 -23 29 -52z m-3051 -207 c79 -54 209
-116 276 -131 28 -7 57 -14 65 -17 8 -3 -22 -16 -68 -29 -157 -46 -273 -114
-400 -238 l-83 -80 16 43 c61 174 57 464 -10 624 -4 11 25 -14 66 -55 41 -41
103 -93 138 -117z m1285 147 c-59 -163 -58 -463 1 -605 8 -18 12 -33 10 -33
-2 0 -31 29 -65 65 -110 114 -271 210 -426 254 -38 10 -62 21 -54 24 8 2 53
16 100 30 142 44 327 165 410 268 17 22 33 39 35 39 2 0 -3 -19 -11 -42z m374
-151 c91 -60 153 -90 242 -117 41 -13 82 -25 90 -27 8 -3 -16 -14 -54 -24
-155 -44 -316 -140 -426 -254 -34 -36 -63 -65 -65 -65 -2 0 2 15 10 33 59 142
60 442 1 605 l-16 43 75 -75 c42 -41 106 -95 143 -119z m1276 143 c-58 -163
-57 -427 2 -592 l15 -42 -83 80 c-127 124 -243 192 -400 238 -46 13 -76 26
-68 29 8 3 38 10 65 17 67 15 197 77 276 131 35 24 96 75 134 114 39 39 71 71
72 70 1 0 -5 -21 -13 -45z m428 -175 c70 -42 149 -74 278 -113 8 -2 -16 -13
-53 -23 -151 -43 -294 -127 -412 -242 -41 -41 -75 -71 -75 -68 0 3 9 34 20 67
29 93 42 243 31 349 -10 93 -34 204 -53 240 -6 11 31 -20 84 -70 56 -54 129
-110 180 -140z m-3732 179 c-16 -42 -37 -149 -44 -229 -10 -101 16 -301 50
-389 3 -8 -28 19 -70 60 -119 116 -246 192 -406 240 -41 12 -68 24 -60 27 203
58 323 123 449 244 47 44 87 80 89 78 1 -1 -2 -15 -8 -31z m-965 -286 l40 -11
-58 -14 c-32 -8 -60 -13 -61 -11 -2 1 -6 16 -10 32 -8 32 -12 31 89 4z m5499
-5 c-4 -16 -8 -30 -10 -31 -1 -2 -29 3 -61 11 l-58 14 45 12 c25 7 50 14 55
16 28 10 35 4 29 -22z m-5331 -103 c-55 -128 -76 -248 -71 -413 5 -157 7 -158
-63 43 -35 100 -109 365 -109 390 0 18 154 57 236 59 l42 1 -35 -80z m294 49
c202 -53 399 -187 512 -349 l43 -61 -54 6 c-268 32 -526 183 -670 393 l-31 45
62 -7 c33 -4 96 -16 138 -27z m1373 25 c0 -15 -97 -129 -163 -190 -85 -80
-195 -146 -310 -186 -80 -29 -254 -64 -264 -54 -9 8 74 114 136 175 66 65 193
149 278 185 117 49 323 94 323 70z m298 -30 c98 -28 203 -80 288 -139 66 -47
198 -183 228 -234 l18 -33 -48 7 c-228 31 -423 124 -569 269 -56 57 -125 145
-125 161 0 12 122 -7 208 -31z m1352 30 c0 -15 -70 -105 -125 -160 -146 -145
-341 -238 -569 -269 l-48 -7 18 33 c30 51 162 187 228 234 114 80 263 143 393
165 60 10 103 12 103 4z m280 -25 c209 -57 385 -176 509 -342 24 -32 41 -60
38 -63 -10 -10 -184 25 -264 54 -115 40 -225 106 -310 186 -68 64 -163 175
-163 192 0 11 111 -5 190 -27z m1351 -13 c-143 -208 -402 -359 -669 -391 l-54
-6 33 48 c97 142 255 265 429 333 62 25 208 58 258 59 l33 1 -30 -44z m215 33
c32 -5 81 -17 107 -25 47 -16 48 -16 41 -52 -14 -78 -74 -283 -119 -407 -26
-72 -48 -131 -49 -132 -1 -2 0 59 2 135 5 163 -16 284 -71 412 l-35 80 32 0
c18 0 59 -5 92 -11z m-5074 -37 c95 -160 341 -338 539 -389 l68 -17 -81 -23
c-93 -27 -186 -71 -273 -128 -73 -48 -199 -172 -243 -239 l-32 -49 -31 68
c-58 128 -73 204 -73 370 0 122 4 164 22 226 21 79 73 209 82 209 3 0 13 -13
22 -28z m4948 -34 c57 -121 74 -207 74 -373 0 -166 -15 -242 -73 -370 l-31
-68 -32 49 c-44 66 -170 190 -243 239 -86 57 -180 101 -272 127 l-81 24 65 17
c88 23 221 86 301 144 79 56 190 167 229 229 15 24 29 44 31 44 2 0 16 -28 32
-62z m-3271 -93 c40 -121 54 -253 40 -375 -10 -91 -54 -247 -83 -300 l-14 -25
-21 47 c-104 243 -104 503 0 746 l21 47 14 -25 c7 -14 27 -66 43 -115z m1649
12 c75 -227 65 -443 -33 -672 l-17 -39 -14 24 c-29 53 -73 209 -84 301 -17
147 6 299 67 448 32 77 36 73 81 -62z m-1793 2 c-24 -68 -45 -204 -45 -294 0
-90 21 -226 45 -294 l15 -44 -82 79 c-129 123 -261 200 -410 240 l-66 18 108
36 c145 48 253 115 359 220 47 47 87 85 89 84 1 0 -5 -21 -13 -45z m2074 -173
c45 -28 131 -66 191 -86 l108 -36 -66 -18 c-149 -40 -281 -117 -411 -241 -47
-44 -81 -71 -76 -60 37 90 48 164 48 320 0 154 -12 235 -48 327 -3 9 33 -23
82 -70 54 -53 121 -106 172 -136z m-1661 5 c83 -50 184 -92 262 -111 l55 -13
-70 -19 c-157 -43 -310 -134 -429 -255 -36 -36 -66 -65 -66 -62 0 2 9 32 20
66 33 105 45 255 31 373 -7 57 -21 131 -32 164 -10 34 -19 63 -19 65 0 2 40
-34 88 -81 48 -46 120 -104 160 -127z m1232 141 c-54 -172 -47 -417 16 -587 4
-11 -24 11 -62 49 -124 123 -272 211 -429 254 l-70 19 55 13 c150 36 295 117
418 235 48 45 88 82 89 81 1 -1 -7 -30 -17 -64z m-2451 -329 c-79 -117 -241
-250 -375 -309 -78 -34 -207 -70 -283 -79 l-64 -7 44 62 c93 133 264 261 427
320 78 28 204 57 260 59 23 1 22 0 -9 -46z m296 15 c152 -38 316 -130 425
-239 60 -60 135 -157 127 -165 -10 -10 -160 17 -235 42 -144 48 -274 127 -376
229 -47 48 -126 148 -126 161 0 9 93 -5 185 -28z m1368 1 c-29 -50 -142 -167
-213 -221 -121 -93 -298 -163 -457 -183 -29 -4 -53 -3 -53 2 0 21 114 154 181
211 76 64 223 146 317 177 55 18 179 42 220 44 23 1 23 1 5 -30z m287 0 c107
-26 280 -116 369 -191 67 -57 181 -190 181 -211 0 -5 -24 -6 -52 -2 -160 20
-337 90 -458 183 -72 54 -184 171 -214 222 l-18 32 58 -7 c33 -4 93 -16 134
-26z m1380 26 c0 -13 -81 -114 -131 -164 -143 -142 -347 -241 -551 -265 -32
-4 -58 -4 -58 1 0 5 27 42 59 83 104 131 268 245 431 300 93 32 250 60 250 45z
m193 -10 c117 -20 238 -66 338 -127 90 -56 215 -173 269 -252 l33 -48 -64 7
c-76 9 -205 45 -283 79 -134 59 -296 192 -375 309 -37 54 -39 53 82 32z
m-3414 -121 c82 -227 77 -479 -16 -682 l-25 -57 -25 52 c-93 201 -98 481 -11
706 16 42 33 75 38 72 4 -3 22 -44 39 -91z m1639 41 c66 -164 89 -363 59 -520
-16 -85 -74 -255 -86 -255 -10 0 -56 117 -78 200 -25 92 -25 339 1 430 21 76
68 200 76 200 3 0 15 -25 28 -55z m1695 -124 c19 -65 22 -99 21 -241 0 -150
-3 -173 -27 -253 -15 -49 -36 -105 -46 -125 l-19 -37 -26 57 c-99 223 -97 502
6 736 l21 47 24 -54 c13 -30 34 -88 46 -130z m-3473 26 c-58 -210 -41 -458 45
-653 14 -31 25 -59 25 -62 0 -11 -143 10 -224 33 -199 58 -373 178 -493 340
l-45 60 91 12 c114 15 256 62 346 115 85 50 197 139 238 190 17 21 32 37 33
35 1 -1 -6 -33 -16 -70z m232 17 c111 -118 280 -221 432 -262 l68 -18 -78 -23
c-159 -46 -336 -157 -443 -277 -24 -27 -41 -40 -36 -29 50 130 68 352 41 497
-9 47 -23 105 -31 127 -8 23 -12 41 -10 41 2 0 28 -25 57 -56z m1433 24 c-59
-143 -60 -439 -1 -608 l16 -45 -46 52 c-108 124 -300 239 -474 284 l-45 12 60
17 c166 48 304 127 415 241 41 42 78 77 82 78 4 0 1 -14 -7 -31z m216 -23
c122 -129 267 -215 454 -268 l50 -14 -45 -12 c-171 -44 -322 -131 -447 -258
l-72 -73 15 43 c59 162 58 463 -1 605 -8 17 -12 32 -10 32 2 0 27 -25 56 -55z
m1434 14 c-61 -172 -56 -452 10 -624 5 -11 -12 2 -36 29 -107 120 -284 231
-443 277 l-78 23 68 18 c153 42 326 147 429 261 28 30 53 55 57 56 4 1 1 -17
-7 -40z m302 -91 c144 -116 307 -187 484 -211 l91 -12 -45 -60 c-120 -162
-294 -282 -493 -340 -81 -23 -224 -44 -224 -33 0 3 11 31 25 62 94 213 105
480 29 713 -3 10 10 0 30 -23 19 -23 66 -66 103 -96z m-2737 -225 c0 -5 -23
-38 -51 -75 -93 -124 -247 -239 -399 -297 -72 -28 -216 -61 -267 -61 l-24 0
18 31 c37 64 167 191 256 250 126 82 262 132 422 152 17 2 33 5 38 6 4 0 7 -2
7 -6z m259 -24 c210 -48 422 -192 543 -367 l31 -45 -64 7 c-186 19 -387 111
-531 244 -55 52 -148 165 -148 182 0 11 66 2 169 -21z m1391 22 c0 -17 -88
-126 -142 -177 -143 -135 -349 -231 -537 -250 l-64 -7 31 45 c140 203 381 349
640 387 31 5 60 9 65 10 4 0 7 -3 7 -8z m237 -16 c176 -34 357 -137 484 -274
41 -44 82 -93 92 -110 l18 -31 -28 0 c-54 0 -209 38 -283 69 -90 37 -206 111
-277 175 -48 44 -153 172 -153 188 0 8 43 3 147 -17z m-1770 -215 c48 -181 29
-416 -47 -584 -21 -47 -23 -48 -37 -31 -22 32 -70 194 -83 284 -21 143 2 313
63 461 l31 75 24 -55 c13 -30 35 -98 49 -150z m1653 -3 c28 -119 35 -227 20
-328 -13 -90 -61 -252 -83 -284 -14 -17 -16 -16 -37 31 -46 103 -72 230 -72
359 0 136 16 224 64 347 l32 83 27 -60 c15 -33 37 -99 49 -148z m-1816 73
c-44 -124 -55 -305 -29 -455 13 -72 49 -185 89 -276 6 -14 -2 -15 -66 -7 -254
29 -492 162 -638 356 -27 37 -50 70 -50 73 0 3 30 9 68 12 202 18 419 123 568
275 38 38 70 69 71 68 1 -1 -5 -22 -13 -46z m331 -105 c91 -70 224 -138 316
-162 38 -9 69 -20 69 -23 0 -3 -26 -11 -57 -18 -76 -16 -242 -97 -320 -156
-33 -25 -87 -74 -119 -109 -42 -45 -56 -55 -50 -37 41 133 48 181 49 315 1
133 -15 239 -49 330 -4 11 14 -3 39 -31 26 -29 80 -78 122 -109z m1307 55
c-21 -81 -25 -116 -25 -240 1 -140 8 -185 49 -320 6 -18 -8 -8 -50 37 -31 34
-88 85 -125 112 -84 62 -236 137 -313 153 -32 7 -58 15 -58 18 0 3 31 14 69
23 140 37 336 157 434 267 23 26 43 47 43 46 1 0 -10 -44 -24 -96z m405 -97
c135 -88 323 -153 443 -153 22 0 40 -3 40 -7 0 -5 -23 -38 -50 -75 -146 -194
-384 -327 -638 -356 -64 -8 -72 -7 -66 7 41 93 77 206 90 283 26 151 9 359
-42 483 -4 11 25 -13 66 -54 40 -40 111 -98 157 -128z m-3386 61 c20 -24 116
-87 186 -123 80 -40 217 -79 312 -89 l73 -7 -45 -60 c-24 -33 -68 -82 -96
-110 l-51 -49 -101 99 c-130 130 -322 355 -301 355 5 0 16 -7 23 -16z m4502
-46 c-66 -85 -196 -229 -287 -318 l-76 -74 -51 49 c-28 28 -72 77 -96 110
l-45 60 73 7 c95 10 232 49 312 89 70 36 166 99 186 123 7 9 18 16 23 16 5 0
-12 -28 -39 -62z m-2309 -215 c-138 -185 -311 -307 -514 -362 -81 -23 -200
-38 -200 -26 0 16 72 103 137 166 76 74 178 144 269 184 78 36 227 74 288 75
l48 0 -28 -37z m254 21 c160 -33 327 -120 445 -232 57 -55 147 -163 147 -178
0 -11 -120 4 -200 27 -203 55 -376 177 -514 362 l-28 37 36 0 c20 0 71 -7 114
-16z m-1818 -13 c0 -6 27 -44 60 -85 141 -175 362 -304 575 -336 139 -21 129
-16 108 -52 -21 -35 -158 -185 -182 -197 -41 -22 -404 175 -626 339 l-53 39
13 54 c7 30 18 72 25 93 30 97 80 186 80 145z m3294 -28 c29 -61 65 -172 72
-222 l6 -48 -83 -59 c-161 -115 -391 -245 -544 -308 l-39 -17 -86 89 c-47 48
-93 102 -103 120 -21 36 -31 31 108 52 213 32 434 161 575 336 33 41 60 79 60
85 0 21 17 7 34 -28z m-1626 -60 c39 -102 62 -224 62 -333 0 -48 -7 -125 -16
-171 -17 -89 -70 -239 -84 -239 -14 0 -67 150 -84 239 -31 164 -15 347 46 504
16 42 33 77 38 77 5 0 22 -35 38 -77z m-1781 -50 c-9 -26 -19 -65 -23 -85 -3
-21 -9 -38 -12 -38 -3 0 -20 12 -39 26 l-34 26 58 62 c32 34 60 61 62 59 1 -1
-4 -23 -12 -50z m1652 1 c-33 -99 -42 -179 -36 -328 5 -153 23 -233 77 -352
16 -35 26 -64 22 -64 -4 0 -50 7 -103 15 -246 37 -462 164 -609 359 -48 64
-45 76 20 76 53 0 192 36 272 70 100 43 221 126 303 209 38 39 70 71 71 71 1
0 -7 -25 -17 -56z m398 -148 c40 -26 104 -60 142 -76 79 -34 218 -70 271 -70
64 0 68 -12 23 -72 -151 -199 -365 -326 -612 -363 -53 -8 -99 -15 -103 -15 -4
0 6 29 22 64 52 115 71 200 77 344 6 141 -5 243 -37 339 l-18 54 82 -79 c44
-44 114 -100 153 -126z m1511 52 c-18 -16 -35 -28 -38 -28 -3 0 -13 30 -22 68
-10 37 -20 77 -24 90 -4 15 13 3 55 -40 l61 -63 -32 -27z m-2594 -283 c91
-131 269 -268 435 -332 l86 -34 -65 7 c-103 10 -316 51 -430 83 -145 41 -160
47 -160 70 0 39 79 261 93 261 2 0 21 -25 41 -55z m1645 -62 c17 -46 34 -101
37 -123 6 -37 4 -40 -22 -50 -117 -45 -419 -111 -569 -125 l-70 -6 83 30 c46
16 120 51 164 78 95 56 229 179 284 259 46 66 47 65 93 -63z m-1791 -53 c-11
-41 -22 -80 -24 -87 -2 -9 -14 -8 -49 3 -25 9 -45 17 -45 18 0 3 135 142 137
141 1 0 -8 -34 -19 -75z m1959 -65 c-1 -1 -21 -9 -45 -18 -33 -13 -43 -14 -46
-5 -2 7 -11 40 -19 73 -9 33 -19 68 -23 78 -4 10 25 -14 64 -54 40 -40 70 -73
69 -74z"/>
</g>
</svg>
